<?xml version="1.0" standalone="no"?>
<!DOCTYPE svg PUBLIC "-//W3C//DTD SVG 20010904//EN"
 "http://www.w3.org/TR/2001/REC-SVG-20010904/DTD/svg10.dtd">
<svg version="1.0" xmlns="http://www.w3.org/2000/svg"
 width="426.000000pt" height="360.000000pt" viewBox="0 0 426.000000 360.000000"
 preserveAspectRatio="xMidYMid meet">
<metadata>
Created by potrace 1.10, written by Peter Selinger 2001-2011
</metadata>
<g transform="translate(0.000000,360.000000) scale(0.100000,-0.100000)"
fill="#00ff55" stroke="none">
<path d="M3520 3569 c-41 -16 -214 -82 -385 -145 -170 -63 -319 -124 -330
-135 -28 -27 -17 -41 110 -131 59 -42 112 -81 117 -86 7 -7 -20 -49 -84 -129
-99 -124 -154 -194 -518 -653 -124 -156 -271 -341 -328 -412 -152 -191 -155
-197 -150 -263 4 -46 10 -61 38 -91 47 -47 100 -61 155 -39 45 17 33 3 380
440 66 84 192 243 280 355 241 306 402 510 439 555 l32 39 35 -24 c19 -13 74
-57 122 -98 85 -71 89 -73 108 -56 12 10 19 30 19 52 0 19 7 89 15 156 16 133
38 343 57 538 10 103 9 129 -1 142 -17 21 -23 20 -111 -15z m100 -21 c0 -13
-9 -108 -20 -213 -11 -104 -25 -239 -31 -300 -5 -60 -14 -137 -19 -170 -5 -33
-10 -79 -10 -102 0 -23 -4 -45 -10 -48 -5 -3 -64 40 -130 96 -71 60 -125 98
-130 93 -9 -9 -148 -185 -322 -409 -56 -71 -105 -132 -108 -135 -4 -3 -69 -86
-147 -185 -77 -99 -178 -227 -224 -285 -46 -58 -129 -163 -184 -233 -81 -102
-108 -130 -141 -143 -50 -19 -108 -7 -143 30 -27 29 -39 102 -22 134 6 11 66
90 133 175 134 168 537 676 633 797 33 41 62 77 65 80 3 3 37 46 75 95 38 50
98 125 133 168 l63 79 -136 95 c-75 52 -133 99 -128 104 4 4 148 60 318 123
171 63 344 129 385 145 91 36 100 37 100 9z"/>
<path d="M1815 2824 c-85 -8 -256 -43 -340 -70 -443 -144 -807 -400 -1141
-804 -138 -167 -314 -436 -314 -480 0 -44 160 -293 299 -465 112 -140 295
-319 472 -462 67 -55 205 -153 215 -153 3 0 18 -8 32 -19 52 -36 198 -110 292
-146 539 -210 1066 -170 1584 117 181 101 324 210 496 380 173 170 370 419
370 467 0 39 -30 43 -276 39 l-233 -3 -118 -124 c-176 -185 -349 -310 -568
-412 -447 -206 -911 -171 -1363 102 -224 136 -488 388 -642 611 l-42 62 18 30
c41 71 157 219 240 306 283 297 594 481 949 561 92 21 381 18 475 -4 41 -10
92 -21 112 -24 l36 -5 127 158 c142 178 154 197 136 218 -19 23 -143 64 -274
92 -99 20 -157 26 -307 28 -102 2 -207 2 -235 0z m519 -49 c131 -26 286 -74
286 -88 0 -10 -234 -310 -256 -328 -10 -8 -37 -5 -106 12 -81 21 -117 24 -283
24 -200 -1 -225 -4 -406 -60 -262 -81 -543 -265 -774 -506 -101 -105 -275
-333 -275 -359 0 -33 188 -270 315 -396 322 -320 678 -499 1057 -533 357 -33
732 90 1063 346 89 69 305 284 305 303 0 6 91 10 250 10 171 0 250 -3 250 -11
0 -19 -60 -101 -195 -269 -46 -58 -235 -246 -305 -305 -72 -60 -229 -175 -280
-204 -163 -95 -305 -160 -445 -205 -212 -68 -467 -97 -679 -77 -198 19 -337
52 -526 126 -94 36 -240 110 -292 146 -14 11 -29 19 -32 19 -11 0 -140 93
-236 169 -203 163 -406 377 -557 589 -88 122 -173 267 -173 292 0 26 74 149
173 290 95 133 136 182 147 175 4 -3 22 12 40 33 75 88 233 241 243 235 5 -3
7 -1 3 5 -3 6 5 19 19 30 14 11 25 23 25 27 0 12 -155 -137 -241 -232 -46 -51
-85 -90 -88 -88 -11 12 248 278 360 369 72 59 89 59 24 0 l-50 -46 53 42 c28
23 50 46 47 50 -6 11 77 73 186 141 211 131 458 232 674 275 197 40 483 39
679 -1z"/>
<path d="M1918 2783 c45 -2 119 -2 165 0 45 1 8 3 -83 3 -91 0 -128 -2 -82 -3z"/>
<path d="M1758 2773 c12 -2 30 -2 40 0 9 3 -1 5 -23 4 -22 0 -30 -2 -17 -4z"/>
<path d="M2203 2773 c9 -2 25 -2 35 0 9 3 1 5 -18 5 -19 0 -27 -2 -17 -5z"/>
<path d="M1693 2763 c9 -2 23 -2 30 0 6 3 -1 5 -18 5 -16 0 -22 -2 -12 -5z"/>
<path d="M2315 2754 c33 -7 67 -13 75 -12 23 1 -82 26 -110 26 -14 0 2 -6 35
-14z"/>
<path d="M1610 2750 c-20 -6 -21 -8 -5 -8 11 0 31 4 45 8 20 6 21 8 5 8 -11 0
-31 -4 -45 -8z"/>
<path d="M1525 2730 c-25 -11 1 -11 35 0 20 6 21 8 5 8 -11 0 -29 -3 -40 -8z"/>
<path d="M2418 2733 c7 -3 16 -2 19 1 4 3 -2 6 -13 5 -11 0 -14 -3 -6 -6z"/>
<path d="M2458 2723 c7 -3 16 -2 19 1 4 3 -2 6 -13 5 -11 0 -14 -3 -6 -6z"/>
<path d="M1250 2630 c-8 -5 -10 -10 -5 -10 6 0 17 5 25 10 8 5 11 10 5 10 -5
0 -17 -5 -25 -10z"/>
<path d="M2340 2622 c0 -5 14 -7 30 -4 17 2 30 6 30 8 0 2 -13 4 -30 4 -16 0
-30 -4 -30 -8z"/>
<path d="M2198 2613 c6 -2 18 -2 25 0 6 3 1 5 -13 5 -14 0 -19 -2 -12 -5z"/>
<path d="M2473 2613 c9 -2 25 -2 35 0 9 3 1 5 -18 5 -19 0 -27 -2 -17 -5z"/>
<path d="M2108 2603 c7 -3 16 -2 19 1 4 3 -2 6 -13 5 -11 0 -14 -3 -6 -6z"/>
<path d="M1998 2583 c7 -3 16 -2 19 1 4 3 -2 6 -13 5 -11 0 -14 -3 -6 -6z"/>
<path d="M1030 2515 c-92 -55 -220 -142 -220 -150 0 -2 42 24 93 59 50 34 122
79 160 100 58 32 77 46 64 46 -2 0 -45 -25 -97 -55z"/>
<path d="M1470 2400 c-9 -6 -10 -10 -3 -10 6 0 15 5 18 10 8 12 4 12 -15 0z"/>
<path d="M1424 2374 c-18 -14 -18 -15 4 -4 12 6 22 13 22 15 0 8 -5 6 -26 -11z"/>
<path d="M1363 2339 c-35 -22 -46 -37 -15 -20 22 13 58 40 52 41 -3 0 -20 -10
-37 -21z"/>
<path d="M1250 2259 c-35 -31 -35 -31 -3 -9 18 11 35 25 38 30 10 16 2 11 -35
-21z"/>
<path d="M1172 2199 c-19 -17 -32 -32 -30 -35 3 -2 20 12 38 31 42 43 37 45
-8 4z"/>
<path d="M1099 2133 l-24 -28 28 24 c25 23 32 31 24 31 -2 0 -14 -12 -28 -27z"/>
<path d="M314 1873 c-53 -67 -57 -73 -52 -73 3 0 26 27 52 60 26 33 45 60 43
60 -3 0 -22 -21 -43 -47z"/>
<path d="M200 1720 c-12 -16 -19 -30 -16 -30 2 0 14 14 26 30 12 17 19 30 16
30 -2 0 -14 -13 -26 -30z"/>
<path d="M156 1655 c-9 -14 -23 -37 -32 -52 l-16 -28 20 24 c24 29 55 81 49
81 -3 0 -12 -11 -21 -25z"/>
<path d="M280 1106 c0 -2 8 -10 18 -17 15 -13 16 -12 3 4 -13 16 -21 21 -21
13z"/>
<path d="M3125 1020 c-33 -33 -58 -64 -56 -68 3 -4 -4 -9 -15 -11 -16 -3 -119
-84 -149 -117 -5 -6 -37 -31 -70 -55 -32 -24 -67 -51 -76 -60 -17 -17 -136
-89 -146 -89 -4 0 -14 -6 -22 -14 -60 -53 -310 -158 -476 -200 -302 -75 -668
-57 -1000 51 -121 39 -225 82 -259 106 -17 12 -33 22 -36 22 -3 0 -4 4 -2 8 1
5 -3 5 -10 1 -47 -30 301 -166 543 -213 404 -78 770 -31 1124 143 168 83 283
160 423 282 63 55 126 106 140 114 22 12 76 15 271 17 224 2 246 4 255 20 8
15 7 16 -5 6 -11 -9 -71 -12 -209 -10 -107 1 -211 -2 -232 -6 -51 -11 -45 10
22 78 30 30 52 55 49 55 -2 0 -31 -27 -64 -60z"/>
<path d="M310 1065 c0 -2 6 -8 13 -14 10 -8 14 -7 14 2 0 8 -6 14 -14 14 -7 0
-13 -1 -13 -2z"/>
<path d="M364 1015 c3 -19 13 -28 32 -31 12 -2 10 4 -7 22 -26 28 -28 29 -25
9z"/>
<path d="M433 924 c15 -17 34 -31 42 -31 12 0 10 6 -7 24 -12 12 -24 21 -26
18 -3 -3 -12 1 -21 7 -9 7 -4 -1 12 -18z m28 -11 c13 -16 12 -17 -3 -4 -10 7
-18 15 -18 17 0 8 8 3 21 -13z"/>
<path d="M480 876 c0 -2 8 -10 18 -17 15 -13 16 -12 3 4 -13 16 -21 21 -21 13z"/>
<path d="M605 752 c27 -29 50 -52 51 -52 1 0 1 7 0 15 -3 18 -47 67 -54 60 -3
-3 -15 3 -26 12 -12 10 1 -6 29 -35z m25 -7 c13 -14 21 -25 18 -25 -2 0 -15
11 -28 25 -13 14 -21 25 -18 25 2 0 15 -11 28 -25z"/>
<path d="M686 691 c-3 -4 7 -19 22 -32 l27 -24 -23 26 c-12 14 -19 29 -15 32
3 4 4 7 0 7 -3 0 -8 -4 -11 -9z"/>
<path d="M756 632 c-3 -6 1 -15 8 -21 8 -7 17 -8 20 -3 3 6 -1 15 -8 21 -8 7
-17 8 -20 3z"/>
<path d="M1828 523 c6 -2 18 -2 25 0 6 3 1 5 -13 5 -14 0 -19 -2 -12 -5z"/>
<path d="M2178 523 c7 -3 16 -2 19 1 4 3 -2 6 -13 5 -11 0 -14 -3 -6 -6z"/>
<path d="M1923 513 c15 -2 37 -2 50 0 12 2 0 4 -28 4 -27 0 -38 -2 -22 -4z"/>
<path d="M1528 203 c7 -3 16 -2 19 1 4 3 -2 6 -13 5 -11 0 -14 -3 -6 -6z"/>
<path d="M1888 143 c17 -2 47 -2 65 0 17 2 3 4 -33 4 -36 0 -50 -2 -32 -4z"/>
<path d="M2063 143 c9 -2 23 -2 30 0 6 3 -1 5 -18 5 -16 0 -22 -2 -12 -5z"/>
<path d="M2994 2390 c-22 -9 -39 -28 -142 -160 -121 -155 -128 -167 -113 -203
23 -58 111 -352 111 -373 0 -11 4 -24 9 -30 5 -5 25 -61 45 -125 36 -117 70
-176 115 -201 19 -10 118 -13 460 -13 397 0 439 2 463 17 59 39 74 76 193 468
100 327 118 396 119 457 1 69 0 73 -34 109 -63 66 -42 64 -652 63 -304 0 -562
-4 -574 -9z m1159 -34 c18 -7 43 -26 57 -41 46 -49 37 -103 -95 -535 -79 -260
-125 -395 -141 -417 -16 -21 -39 -36 -64 -43 -27 -7 -183 -10 -459 -8 l-419 3
-27 25 c-41 38 -47 55 -139 361 -47 156 -93 299 -102 318 -14 33 -14 36 7 65
58 80 177 233 201 258 l26 28 562 0 c453 0 567 -3 593 -14z"/>
<path d="M3033 2343 c15 -2 37 -2 50 0 12 2 0 4 -28 4 -27 0 -38 -2 -22 -4z"/>
<path d="M3128 2343 c7 -3 16 -2 19 1 4 3 -2 6 -13 5 -11 0 -14 -3 -6 -6z"/>
<path d="M3238 2343 c6 -2 18 -2 25 0 6 3 1 5 -13 5 -14 0 -19 -2 -12 -5z"/>
<path d="M2900 2114 c0 -12 63 -219 72 -236 7 -16 24 -18 120 -18 l111 0 -6
28 c-3 16 -9 65 -12 108 -11 137 5 124 -150 124 -74 0 -135 -3 -135 -6z m260
-63 c0 -21 3 -66 6 -100 l7 -62 -94 3 -93 3 -27 90 c-15 50 -25 93 -22 98 2 4
53 7 114 7 l109 0 0 -39z"/>
<path d="M3324 2073 c4 -27 9 -75 12 -108 10 -116 -4 -106 147 -103 l132 3 11
85 c7 47 13 104 13 128 l1 42 -161 0 -162 0 7 -47z m286 -30 c0 -27 -3 -72 -6
-100 l-7 -53 -118 0 -119 0 0 33 c0 17 -3 62 -7 100 l-6 67 132 0 131 0 0 -47z"/>
<path d="M3795 2108 c-6 -21 -25 -179 -25 -215 l0 -33 104 0 c58 0 108 4 111
10 3 5 19 58 36 117 16 59 32 114 34 121 3 9 -26 12 -126 12 -95 0 -131 -3
-134 -12z m225 -30 c0 -7 -11 -51 -24 -98 l-23 -85 -86 -3 -87 -3 0 54 c0 30
3 75 6 101 l7 46 103 0 c77 0 104 -3 104 -12z"/>
<path d="M3030 1703 c0 -21 62 -218 71 -230 7 -8 34 -13 75 -13 75 0 75 -1 57
140 -7 52 -12 98 -13 103 0 4 -43 7 -95 7 -52 0 -95 -3 -95 -7z m174 -39 c3
-9 6 -51 6 -95 l0 -79 -44 0 c-25 0 -48 6 -53 13 -13 20 -52 161 -47 169 3 5
34 8 69 8 48 0 64 -4 69 -16z"/>
<path d="M3370 1686 c0 -27 18 -168 26 -204 4 -22 8 -23 87 -20 l82 3 6 60 c4
33 10 88 14 123 l8 62 -112 0 c-111 0 -111 0 -111 -24z m190 -33 c0 -16 -3
-58 -7 -95 l-6 -68 -63 0 c-34 0 -66 4 -69 10 -3 5 -9 48 -12 95 l-6 85 82 0
81 0 0 -27z"/>
<path d="M3745 1698 c-4 -14 -25 -197 -25 -222 0 -13 13 -16 70 -16 l69 0 36
113 c19 62 35 119 35 125 0 17 -179 17 -185 0z m154 -30 c0 -7 -12 -49 -27
-93 l-27 -80 -47 -3 -48 -3 0 43 c0 24 3 67 6 96 l7 52 68 0 c49 0 69 -4 68
-12z"/>
<path d="M3262 1475 c0 -16 2 -22 5 -12 2 9 2 23 0 30 -3 6 -5 -1 -5 -18z"/>
<path d="M3690 1461 c0 -10 19 -25 25 -20 1 2 -3 10 -11 17 -8 7 -14 8 -14 3z"/>
<path d="M1813 2204 c-238 -52 -456 -253 -537 -495 -107 -320 -5 -647 267
-856 159 -123 405 -175 602 -128 39 9 113 37 165 62 80 38 108 58 175 127 96
97 141 164 184 271 40 99 55 203 47 321 -9 148 -83 345 -133 352 -22 3 -33 -9
-255 -287 -98 -123 -140 -151 -229 -151 -135 0 -222 79 -223 205 -1 80 9 97
188 322 82 103 151 195 153 203 11 42 -91 71 -246 69 -53 -1 -124 -7 -158 -15z
m297 -14 c25 -6 55 -12 68 -15 12 -3 22 -10 22 -15 0 -5 -66 -93 -147 -195
-179 -224 -198 -257 -197 -341 2 -173 189 -279 351 -198 56 27 88 62 262 283
57 72 107 131 112 131 13 0 64 -107 91 -190 19 -64 23 -95 22 -205 -1 -108 -5
-141 -24 -195 -76 -216 -202 -361 -388 -446 -298 -138 -658 -54 -865 201 -119
147 -181 359 -157 537 43 319 270 578 563 642 74 17 224 19 287 6z"/>
<path d="M1968 2183 c12 -2 30 -2 40 0 9 3 -1 5 -23 4 -22 0 -30 -2 -17 -4z"/>
<path d="M1858 2173 c6 -2 18 -2 25 0 6 3 1 5 -13 5 -14 0 -19 -2 -12 -5z"/>
<path d="M1808 2163 c6 -2 18 -2 25 0 6 3 1 5 -13 5 -14 0 -19 -2 -12 -5z"/>
<path d="M1654 2104 c-18 -14 -18 -15 4 -4 12 6 22 13 22 15 0 8 -5 6 -26 -11z"/>
<path d="M1559 2043 c-13 -16 -12 -17 4 -4 9 7 17 15 17 17 0 8 -8 3 -21 -13z"/>
<path d="M1480 1973 l-55 -58 58 55 c53 50 62 60 54 60 -1 0 -27 -26 -57 -57z"/>
<path d="M1409 1893 c-13 -16 -12 -17 4 -4 9 7 17 15 17 17 0 8 -8 3 -21 -13z"/>
<path d="M1830 1770 c-65 -35 -135 -107 -163 -170 -13 -29 -22 -74 -25 -125
-5 -100 19 -172 83 -242 209 -234 585 -102 601 210 2 49 0 67 -7 60 -5 -5 -12
-39 -14 -74 -4 -64 -44 -169 -66 -169 -5 0 -9 -6 -9 -13 0 -40 -164 -117 -249
-117 -109 0 -224 65 -278 157 -97 166 -37 378 132 469 28 14 54 30 60 35 18
17 -9 8 -65 -21z"/>
<path d="M1832 1615 c0 -16 2 -22 5 -12 2 9 2 23 0 30 -3 6 -5 -1 -5 -18z"/>
<path d="M1273 1455 c0 -33 2 -45 4 -27 2 18 2 45 0 60 -2 15 -4 0 -4 -33z"/>
<path d="M2200 1405 c-14 -8 -20 -14 -14 -15 5 0 19 7 30 15 24 18 16 19 -16
0z"/>
<path d="M2083 1373 c9 -2 23 -2 30 0 6 3 -1 5 -18 5 -16 0 -22 -2 -12 -5z"/>
<path d="M1973 753 c9 -2 23 -2 30 0 6 3 -1 5 -18 5 -16 0 -22 -2 -12 -5z"/>
</g>
</svg>
